# xmcd
#
# Track frame offsets: 
#        150
#        38810
#        66552
#        87884
#        113982
#        136458
#        159478
#        192550
#        220185
#
# Disc length: 3613 seconds
#
# Revision: 0
# Processed by: cddbd v1.5.1PL0 Copyright (c) Steve Scherf et al.
# Submitted via: ExactAudioCopy v0.95a4
#
DISCID=850e1b09
DTITLE=Malkit Singh - Khich Kanda
DYEAR=2002
DGENRE=Bhangra
TTITLE0=Jugni
TTITLE1=Jind Mahi
TTITLE2=Khich Kanda
TTITLE3=Daaru Peeni
TTITLE4=Independent Girl
TTITLE5=Mar Jaava Gudhkhaake
TTITLE6=Guru Nalon Ishq Mitha
TTITLE7=Cheecho Cheech Ganeriyan (Boliyan)
TTITLE8=Raagamuffin Mix
EXTD=
EXTT0=
EXTT1=
EXTT2=
EXTT3=
EXTT4=
EXTT5=
EXTT6=
EXTT7=
EXTT8=
PLAYORDER=
